<svg xmlns="http://www.w3.org/2000/svg" width="129" height="131.124" viewBox="0 0 129 131.124">
  <g id="Group_38109" data-name="Group 38109" transform="translate(491.013 645.692)">
    <path id="Path_71" data-name="Path 71" d="M-418.667-614.373c3.249-.04,2.645-2.08,1.937-4.095a41.94,41.94,0,0,0-18.382-22.794,48.97,48.97,0,0,0-9.433-4.184c-2.247-.761-3.77.242-2.885,2.933,4.546,13.818,13.84,22.992,27.481,27.876A9.693,9.693,0,0,0-418.667-614.373Z" transform="translate(-10.794)" fill="#d10f96"/>
    <path id="Path_72" data-name="Path 72" d="M-373.08-643.439a3.138,3.138,0,0,0-1.783-1.8,3.138,3.138,0,0,0-2.531.1,89.963,89.963,0,0,0-8.242,4.169,41.235,41.235,0,0,0-18,22.618c-.347,1.019-.583,2.645-.043,3.239a3.7,3.7,0,0,0,3.243.448c13.7-4.795,22.969-14.051,27.424-27.891A1.4,1.4,0,0,0-373.08-643.439Z" transform="translate(-21.683 -0.051)" fill="#ff5459"/>
    <path id="Path_73" data-name="Path 73" d="M-358.551-556.924c.825.249,1.733.465,2.6.8a42.716,42.716,0,0,1,25.837,25.947c.468,1.246.233,2.755.322,4.142-1.484-.04-3.113.306-4.431-.182-12.71-4.711-21.375-13.516-26.005-26.236C-361.36-555.579-360.785-556.937-358.551-556.924Z" transform="translate(-32.447 -22.118)" fill="#ff5459"/>
    <path id="Path_74" data-name="Path 74" d="M-446.237-557.307c1.3.385,1.546.481,1.806.533,11.281,2.257,26.221,17.144,28.211,28.1.447,2.459-.387,3.539-3.007,3.027-11.1-2.172-25.89-16.92-28.054-28.216C-447.482-554.91-446.606-556.168-446.237-557.307Z" transform="translate(-10.889 -22.023)" fill="#ff5459"/>
    <path id="Path_75" data-name="Path 75" d="M-415.958-598.738c-.31.994-.564,2.026-.949,3.006-4.837,12.281-13.408,20.815-25.815,25.393-1.244.459-2.745.225-4.127.313-.008-1.358-.4-2.855.036-4.049q7.06-19.243,26.379-26.353C-418.637-601.086-416.466-602.074-415.958-598.738Z" transform="translate(-10.961 -11.113)" fill="#ff5459"/>
    <path id="Path_76" data-name="Path 76" d="M-400.772-600.845c1.833.8,4.208,1.684,6.434,2.848a42.074,42.074,0,0,1,21.04,24.422c.35,1.023.6,2.62.07,3.251s-2.238.73-3.2.4c-13.732-4.716-22.89-14.029-27.6-27.735C-404.929-600.276-403.779-601.1-400.772-600.845Z" transform="translate(-21.599 -11.164)" fill="#ff5459"/>
    <path id="Path_77" data-name="Path 77" d="M-356.867-569.92a2.717,2.717,0,0,1-2.223-.206,2.717,2.717,0,0,1-1.319-1.8,1.71,1.71,0,0,1,.04-1.032,71.594,71.594,0,0,1,6.1-11.981A40.012,40.012,0,0,1-333.2-600.487c1.011-.333,2.661-.4,3.269.188.582.559.533,2.243.185,3.232-4.7,13.343-13.77,22.38-27.106,27.142Z" transform="translate(-32.525 -11.202)" fill="#ff5459"/>
    <path id="Path_78" data-name="Path 78" d="M-459.108-553.76c-1.87,3.644-3.464,7.465-5.667,10.9A40.86,40.86,0,0,1-486.4-526.045a14.049,14.049,0,0,1-3.772.232c-.057-1.255-.506-2.651-.112-3.745,4.754-13.179,13.7-22.235,27.02-26.812C-460.258-557.4-459.285-556.665-459.108-553.76Z" transform="translate(-0.142 -22.146)" fill="#ff5459"/>
    <path id="Path_79" data-name="Path 79" d="M-418.667-512.766c3.249.04,2.645,2.08,1.937,4.094a41.94,41.94,0,0,1-18.382,22.794,48.878,48.878,0,0,1-9.433,4.184c-2.247.761-3.77-.242-2.885-2.934,4.546-13.818,13.84-22.992,27.481-27.875A9.683,9.683,0,0,1-418.667-512.766Z" transform="translate(-10.794 -33.121)" fill="#ff5459"/>
    <path id="Path_80" data-name="Path 80" d="M-373.08-483.595a3.139,3.139,0,0,1-1.783,1.8,3.139,3.139,0,0,1-2.531-.1,89.756,89.756,0,0,1-8.242-4.17,41.233,41.233,0,0,1-18-22.617c-.347-1.019-.583-2.646-.043-3.24a3.7,3.7,0,0,1,3.243-.447c13.7,4.794,22.969,14.05,27.424,27.89A1.4,1.4,0,0,1-373.08-483.595Z" transform="translate(-21.683 -33.176)" fill="#ff5459"/>
    <path id="Path_81" data-name="Path 81" d="M-459.616-571.777c-.15,3.071-2.18,2.331-3.958,1.733-7.885-2.661-14.687-7.095-19.587-13.781a74.062,74.062,0,0,1-7.392-13.532c-1.271-2.829.206-4.32,3.067-3.341,13.709,4.695,22.975,13.914,27.645,27.663A8.793,8.793,0,0,1-459.616-571.777Z" transform="translate(0 -11.137)" fill="#ff5459"/>
    <path id="Path_82" data-name="Path 82" d="M-374.919-556.783c2.57.2,2.4,1.767,1.681,3.838a42.614,42.614,0,0,1-20.623,24.277,39.784,39.784,0,0,1-7.337,3.041c-2.075.633-3.359-.159-2.876-2.7,2.111-11.091,16.88-25.921,28.118-28.178C-375.7-556.553-375.443-556.639-374.919-556.783Z" transform="translate(-21.637 -22.154)" fill="#d10f96"/>
  </g>
</svg>
