<svg xmlns="http://www.w3.org/2000/svg" width="25.683" height="28.297" viewBox="0 0 25.683 28.297">
  <g id="Icon_feather-bell" data-name="Icon feather-bell" transform="translate(-3.489 -2)">
    <path id="Path_2722" data-name="Path 2722" d="M28.171,23.726H4.5a1.006,1.006,0,0,1-.971-.715A.986.986,0,0,1,3.94,21.9a6.808,6.808,0,0,0,1.735-2.265A18.691,18.691,0,0,0,7.445,10.89a8.89,8.89,0,0,1,17.781,0,18.433,18.433,0,0,0,1.851,8.891,6.567,6.567,0,0,0,1.649,2.113,1,1,0,0,1-.555,1.832Zm-21.428-2H25.928c-1.238-1.813-2.7-5.158-2.7-10.836a6.89,6.89,0,0,0-13.781,0C9.445,16.568,7.981,19.913,6.743,21.726Z" fill="#1c5c2e"/>
    <path id="Path_2723" data-name="Path 2723" d="M17.68,33.81A3.641,3.641,0,0,1,14.54,32a1,1,0,1,1,1.73-1,1.63,1.63,0,0,0,2.82,0,1,1,0,0,1,1.73,1A3.641,3.641,0,0,1,17.68,33.81Z" transform="translate(-1.344 -3.513)" fill="#1c5c2e"/>
  </g>
</svg>
