<svg xmlns="http://www.w3.org/2000/svg" width="28.75" height="34.75" viewBox="0 0 28.75 34.75">
  <path id="Icon_material-content-paste" data-name="Icon material-content-paste" d="M18-.875a5.4,5.4,0,0,1,4.805,3H28.5A3.879,3.879,0,0,1,32.375,6V30A3.879,3.879,0,0,1,28.5,33.875H7.5A3.879,3.879,0,0,1,3.625,30V6A3.879,3.879,0,0,1,7.5,2.125h5.695A5.4,5.4,0,0,1,18-.875Zm10.5,33A2.127,2.127,0,0,0,30.625,30V6A2.127,2.127,0,0,0,28.5,3.875H21.616L21.407,3.3a3.607,3.607,0,0,0-6.815,0l-.209.577H7.5A2.127,2.127,0,0,0,5.375,6V30A2.127,2.127,0,0,0,7.5,32.125ZM18,2.125A2.375,2.375,0,1,1,15.625,4.5,2.378,2.378,0,0,1,18,2.125Zm0,3a.625.625,0,1,0-.625-.625A.626.626,0,0,0,18,5.125Zm-11.375,0h4.75v4.5h13.25v-4.5h4.75v25.75H6.625Zm3,1.75H8.375v22.25h19.25V6.875h-1.25v4.5H9.625Z" transform="translate(-3.625 0.875)" fill="#1c5c2e"/>
</svg>
