<svg xmlns="http://www.w3.org/2000/svg" width="29.03" height="29.027" viewBox="0 0 29.03 29.027">
  <g id="Icon_feather-tag" data-name="Icon feather-tag" transform="translate(1.314 1.313)">
    <path id="Path_2739" data-name="Path 2739" d="M15.379,27.714a3.452,3.452,0,0,1-2.458-1.019L2.293,16.08A1,1,0,0,1,2,15.372V3A1,1,0,0,1,3,2H15.372a1,1,0,0,1,.707.293L26.707,12.921a3.483,3.483,0,0,1,0,4.9l-8.873,8.873A3.451,3.451,0,0,1,15.379,27.714ZM4,14.958,14.335,25.28a1.474,1.474,0,0,0,2.087,0l8.871-8.871a1.477,1.477,0,0,0,0-2.077L14.958,4H4Z" transform="translate(0 0)" fill="#1c5c2e"/>
    <path id="Path_2740" data-name="Path 2740" transform="translate(-1.314 -1.314)" fill="#1c5c2e"/>
  </g>
</svg>
