<svg xmlns="http://www.w3.org/2000/svg" width="29" height="31.25" viewBox="0 0 29 31.25">
  <path id="Icon_ionic-md-flower" data-name="Icon ionic-md-flower" d="M18,2.375a6.271,6.271,0,0,1,6.16,5.044A6.281,6.281,0,0,1,32.5,13.3a6.12,6.12,0,0,1-1.008,3.374A6.264,6.264,0,0,1,30.314,18a6.264,6.264,0,0,1,1.178,1.33A6.12,6.12,0,0,1,32.5,22.7a6.256,6.256,0,0,1-6.273,6.224,6.346,6.346,0,0,1-2.067-.342,6.284,6.284,0,0,1-12.32-.005A6.281,6.281,0,0,1,3.5,22.7,6.12,6.12,0,0,1,4.508,19.33,6.264,6.264,0,0,1,5.686,18a6.275,6.275,0,0,1-1.178-1.333A6.12,6.12,0,0,1,3.5,13.3,6.256,6.256,0,0,1,9.773,7.072a6.346,6.346,0,0,1,2.067.342A6.271,6.271,0,0,1,18,2.375Zm4.273,6.174a4.274,4.274,0,0,0-8.546,0L14,11.058,12.2,9.815A4.287,4.287,0,0,0,5.5,13.3a4.184,4.184,0,0,0,2.443,3.8l1.915.9-1.915.9A4.184,4.184,0,0,0,5.5,22.7a4.287,4.287,0,0,0,6.709,3.474l1.783-1.2-.265,2.476a4.274,4.274,0,0,0,8.546,0L22,24.942l1.8,1.242A4.287,4.287,0,0,0,30.5,22.7a4.184,4.184,0,0,0-2.443-3.8L26.142,18l1.915-.9A4.184,4.184,0,0,0,30.5,13.3a4.287,4.287,0,0,0-6.709-3.474l-1.783,1.2ZM18,11.776A6.224,6.224,0,1,1,11.727,18,6.256,6.256,0,0,1,18,11.776Zm0,10.448A4.225,4.225,0,1,0,13.727,18,4.254,4.254,0,0,0,18,22.224Z" transform="translate(-3.5 -2.375)" fill="#1c5c2e"/>
</svg>
