<svg xmlns="http://www.w3.org/2000/svg" width="30.207" height="29.008" viewBox="0 0 30.207 29.008">
  <g id="Layer_1-2" transform="translate(1 1)">
    <g id="Group_38577" data-name="Group 38577" transform="translate(0 0)">
      <path id="Path_2678" data-name="Path 2678" d="M26.826,60.164l1.806,2.455a2.964,2.964,0,0,1,.194,3.206v.436l-.148-.2a2.962,2.962,0,0,1-.677.693l-6.2,4.569a7.613,7.613,0,0,1-4.545,1.493H1.568A2.571,2.571,0,0,1-1,70.246V67.112a2.571,2.571,0,0,1,2.568-2.568H3.019L4.946,63a7.284,7.284,0,0,1,4.543-1.59H17.24a2.568,2.568,0,0,1,1.424,4.7H18.9l5.6-4.124a2.949,2.949,0,0,1,2.329-.518ZM17.24,64.547a.562.562,0,0,0,.568-.568.569.569,0,0,0-.568-.568H9.489A5.277,5.277,0,0,0,6.2,64.561L3.722,66.544H1.568A.569.569,0,0,0,1,67.112v3.134a.569.569,0,0,0,.568.568H17.257a5.626,5.626,0,0,0,3.359-1.1l6.2-4.569a.956.956,0,0,0,.237-1.292l-.032-.044a.956.956,0,0,0-1.338-.2l-6.125,4.513H13.322a1.784,1.784,0,1,1,0-3.568Z" transform="translate(0 -44.806)" fill="#1c5c2e"/>
      <path id="Path_2679" data-name="Path 2679" d="M47.807-1a1.4,1.4,0,0,1,1.31.913l.57,1.525,1.527.571a1.4,1.4,0,0,1,0,2.619L49.687,5.2l-.57,1.526a1.4,1.4,0,0,1-2.619,0L45.927,5.2,44.4,4.627a1.4,1.4,0,0,1,0-2.62l1.525-.57L46.5-.09A1.4,1.4,0,0,1,47.807-1ZM49,3.317l-.872-.326-.326-.872-.326.872-.872.326.872.326.326.872.326-.872Z" transform="translate(-31.941 0)" fill="#1c5c2e"/>
      <path id="Path_2680" data-name="Path 2680" d="M14.181,4.87a1.606,1.606,0,0,1,1.5,1.039l.94,2.5,2.514.944a1.6,1.6,0,0,1-.01,2.992l-2.5.94L15.676,15.8a1.6,1.6,0,0,1-2.992-.01l-.94-2.5L9.23,12.346a1.6,1.6,0,0,1,.01-2.992l2.5-.94L12.687,5.9A1.593,1.593,0,0,1,14.181,4.87Zm3.242,5.981-2.357-.885-.885-2.357L13.3,9.967l-2.357.885,2.357.885.885,2.357.885-2.357Z" transform="translate(-6.605 -4.214)" fill="#1c5c2e"/>
      <path id="Path_2681" data-name="Path 2681" d="M61.231,23.26a1.606,1.606,0,0,1,1.5,1.039l.94,2.5,2.514.944a1.6,1.6,0,0,1-.01,2.992l-2.5.94-.944,2.514a1.6,1.6,0,0,1-2.992-.01l-.94-2.5-2.514-.944a1.6,1.6,0,0,1,.01-2.992l2.5-.94.944-2.514A1.593,1.593,0,0,1,61.231,23.26Zm3.242,5.981-2.357-.885L61.231,26l-.885,2.357-2.357.885,2.357.885.885,2.357.885-2.357Z" transform="translate(-40.384 -17.417)" fill="#1c5c2e"/>
    </g>
  </g>
</svg>
