<svg xmlns="http://www.w3.org/2000/svg" width="31.58" height="32.1" viewBox="0 0 31.58 32.1">
  <g id="Group_38109" data-name="Group 38109" transform="translate(491.013 645.692)">
    <path id="Path_71" data-name="Path 71" d="M-440.581-638.025c.8-.01.648-.509.474-1a10.267,10.267,0,0,0-4.5-5.58,11.983,11.983,0,0,0-2.309-1.024c-.55-.186-.923.059-.706.718a10.393,10.393,0,0,0,6.727,6.824A2.372,2.372,0,0,0-440.581-638.025Z" transform="translate(-35.363)" fill="#fff"/>
    <path id="Path_72" data-name="Path 72" d="M-396.426-644.962a.768.768,0,0,0-.436-.44.768.768,0,0,0-.619.025,22.018,22.018,0,0,0-2.018,1.021,10.094,10.094,0,0,0-4.406,5.537c-.085.249-.143.648-.01.793a.905.905,0,0,0,.794.11,10.247,10.247,0,0,0,6.714-6.828A.343.343,0,0,0-396.426-644.962Z" transform="translate(-71.025 -0.191)" fill="#fff"/>
    <path id="Path_73" data-name="Path 73" d="M-360.244-556.924c.2.061.424.114.637.195a10.457,10.457,0,0,1,6.325,6.352,3.651,3.651,0,0,1,.079,1.014,3.553,3.553,0,0,1-1.085-.044,10.31,10.31,0,0,1-6.366-6.423C-360.931-556.595-360.791-556.927-360.244-556.924Z" transform="translate(-106.285 -72.452)" fill="#fff"/>
    <path id="Path_74" data-name="Path 74" d="M-447.048-557.307c.317.094.378.118.442.131,2.762.553,6.419,4.2,6.906,6.88.109.6-.095.866-.736.741-2.717-.532-6.338-4.142-6.868-6.908C-447.353-556.72-447.138-557.028-447.048-557.307Z" transform="translate(-35.669 -72.14)" fill="#fff"/>
    <path id="Path_75" data-name="Path 75" d="M-439.417-600.516c-.076.243-.138.5-.232.736a10.4,10.4,0,0,1-6.32,6.216,3.691,3.691,0,0,1-1.01.077,3,3,0,0,1,.009-.991,10.394,10.394,0,0,1,6.458-6.451C-440.072-601.091-439.541-601.333-439.417-600.516Z" transform="translate(-35.906 -36.402)" fill="#fff"/>
    <path id="Path_76" data-name="Path 76" d="M-403.457-600.878c.449.2,1.03.412,1.575.7a10.3,10.3,0,0,1,5.151,5.979c.086.25.148.641.017.8a.894.894,0,0,1-.784.1,10.4,10.4,0,0,1-6.757-6.79C-404.475-600.738-404.194-600.94-403.457-600.878Z" transform="translate(-70.751 -36.569)" fill="#fff"/>
    <path id="Path_77" data-name="Path 77" d="M-359.588-593.194a.665.665,0,0,1-.544-.05.665.665,0,0,1-.323-.441.419.419,0,0,1,.01-.253,17.526,17.526,0,0,1,1.492-2.933,9.8,9.8,0,0,1,5.159-3.806.968.968,0,0,1,.8.046.935.935,0,0,1,.045.791,10.419,10.419,0,0,1-6.636,6.644Z" transform="translate(-106.548 -36.691)" fill="#fff"/>
    <path id="Path_78" data-name="Path 78" d="M-482.773-556.065c-.458.892-.848,1.827-1.387,2.667a10,10,0,0,1-5.294,4.117,3.438,3.438,0,0,1-.923.057,2.585,2.585,0,0,1-.027-.917,10.3,10.3,0,0,1,6.615-6.564C-483.054-556.957-482.816-556.776-482.773-556.065Z" transform="translate(-0.465 -72.544)" fill="#fff"/>
    <path id="Path_79" data-name="Path 79" d="M-440.581-512.766c.8.01.648.509.474,1a10.267,10.267,0,0,1-4.5,5.58,11.965,11.965,0,0,1-2.309,1.024c-.55.186-.923-.059-.706-.718A10.392,10.392,0,0,1-440.9-512.7,2.371,2.371,0,0,1-440.581-512.766Z" transform="translate(-35.363 -108.494)" fill="#fff"/>
    <path id="Path_80" data-name="Path 80" d="M-396.426-505.46a.769.769,0,0,1-.436.44.768.768,0,0,1-.62-.025,21.971,21.971,0,0,1-2.018-1.021A10.094,10.094,0,0,1-403.9-511.6c-.085-.249-.143-.648-.01-.793a.906.906,0,0,1,.794-.109,10.246,10.246,0,0,1,6.714,6.828A.343.343,0,0,1-396.426-505.46Z" transform="translate(-71.025 -108.672)" fill="#fff"/>
    <path id="Path_81" data-name="Path 81" d="M-483.327-593.845c-.037.752-.534.571-.969.424a9.573,9.573,0,0,1-4.8-3.374,18.134,18.134,0,0,1-1.81-3.313c-.311-.693.05-1.058.751-.818a10.343,10.343,0,0,1,6.768,6.772A2.143,2.143,0,0,1-483.327-593.845Z" transform="translate(0 -36.479)" fill="#fff"/>
    <path id="Path_82" data-name="Path 82" d="M-397.014-556.783c.629.049.587.433.411.94a10.432,10.432,0,0,1-5.049,5.943,9.74,9.74,0,0,1-1.8.744c-.508.155-.822-.039-.7-.66.517-2.715,4.132-6.346,6.883-6.9C-397.2-556.727-397.142-556.748-397.014-556.783Z" transform="translate(-70.876 -72.567)" fill="#fff"/>
  </g>
</svg>
