<svg xmlns="http://www.w3.org/2000/svg" width="37.975" height="34.781" viewBox="0 0 37.975 34.781">
  <g id="Layer_1-2" transform="translate(0.507 0.5)">
    <g id="Group_38589" data-name="Group 38589" transform="translate(-0.005)">
      <path id="Path_2708" data-name="Path 2708" d="M4.425,27.16H2.406A2.4,2.4,0,0,1,.332,25.976,2.365,2.365,0,0,1,.3,23.592l12.4-22.353a2.4,2.4,0,0,1,4.2,0L29.456,23.872a.749.749,0,0,1-1.309.73L15.6,1.964a.9.9,0,0,0-1.579,0L1.611,24.317a.9.9,0,0,0,.79,1.344H4.42a.75.75,0,1,1,0,1.5Z" transform="translate(0.005)" fill="#1c5c2e"/>
      <path id="Path_2708_-_Outline" data-name="Path 2708 - Outline" d="M4.425,27.66H2.406A2.89,2.89,0,0,1-.1,26.231a2.855,2.855,0,0,1-.036-2.884L12.268,1a2.9,2.9,0,0,1,5.077,0L29.893,23.629a1.251,1.251,0,0,1-.484,1.7,1.265,1.265,0,0,1-.607.157,1.249,1.249,0,0,1-1.092-.641L15.161,2.206a.4.4,0,0,0-.7,0L2.049,24.559a.4.4,0,0,0,.352.6H4.42a1.25,1.25,0,0,1,0,2.5ZM14.8.5a1.878,1.878,0,0,0-1.662.982L.739,23.835A1.866,1.866,0,0,0,.762,25.72a1.9,1.9,0,0,0,1.644.94H4.42a.25.25,0,0,0,0-.5H2.4a1.4,1.4,0,0,1-1.228-2.085L13.582,1.721a1.4,1.4,0,0,1,2.454,0L28.584,24.359a.249.249,0,0,0,.217.126.256.256,0,0,0,.124-.032.245.245,0,0,0,.114-.148.25.25,0,0,0-.021-.19L16.471,1.482A1.883,1.883,0,0,0,14.8.5Z" transform="translate(0.005)" fill="#1c5c2e"/>
      <path id="Path_2709" data-name="Path 2709" d="M43.066,27.16H17.75a.75.75,0,1,1,0-1.5H43.066a.892.892,0,0,0,.78-.445.883.883,0,0,0,.01-.9L31.457,1.964a.9.9,0,0,0-.79-.465h0a.89.89,0,0,0-.79.465l-.969,1.749a.749.749,0,1,1-1.309-.73l.969-1.749A2.365,2.365,0,0,1,30.662,0h0a2.375,2.375,0,0,1,2.1,1.239l12.4,22.348a2.4,2.4,0,0,1-2.1,3.568Z" transform="translate(-8.502)" fill="#1c5c2e"/>
      <path id="Path_2709_-_Outline" data-name="Path 2709 - Outline" d="M43.567,27.66H17.75a1.25,1.25,0,1,1,0-2.5H43.066a.389.389,0,0,0,.349-.2.377.377,0,0,0,0-.4L31.02,2.206A.4.4,0,0,0,30.667,2a.391.391,0,0,0-.352.206l-.97,1.75a1.251,1.251,0,0,1-2.3-.267,1.237,1.237,0,0,1,.113-.949L28.131.992A2.9,2.9,0,0,1,33.2,1l12.4,22.348a2.9,2.9,0,0,1-2.04,4.269Zm-25.817-1.5a.25.25,0,1,0,0,.5H42.565v0h.5a1.9,1.9,0,0,0,1.667-2.825L32.329,1.482a1.9,1.9,0,0,0-3.323-.006l-.97,1.75a.243.243,0,0,0-.024.19.251.251,0,0,0,.459.055l.969-1.749A1.383,1.383,0,0,1,30.667,1a1.4,1.4,0,0,1,1.227.723l12.4,22.352a1.4,1.4,0,0,1-1.227,2.087Z" transform="translate(-8.502)" fill="#1c5c2e"/>
      <path id="Path_2710" data-name="Path 2710" d="M34.559,40.738H9.758a2.4,2.4,0,0,1-2.1-3.568L20.142,14.3a.751.751,0,0,1,1.319.72L8.968,37.889a.906.906,0,0,0,.79,1.349h24.8a.892.892,0,0,0,.78-.445.883.883,0,0,0,.01-.9l-1.294-2.329a.749.749,0,0,1,1.309-.73l1.294,2.329a2.4,2.4,0,0,1-2.1,3.568Z" transform="translate(-3.674 -6.956)" fill="#1c5c2e"/>
      <path id="Path_2710_-_Outline" data-name="Path 2710 - Outline" d="M35.768,41.238H9.758a2.9,2.9,0,0,1-2.542-4.309L19.7,14.058a1.251,1.251,0,0,1,2.2,1.195L9.407,38.129a.406.406,0,0,0,.351.61h24.8a.389.389,0,0,0,.349-.2.377.377,0,0,0,0-.4l-1.3-2.33a1.251,1.251,0,0,1,.484-1.7,1.265,1.265,0,0,1,.607-.157,1.249,1.249,0,0,1,1.092.641L37.1,36.922A2.907,2.907,0,0,1,35.58,41.05ZM20.8,14.4a.253.253,0,0,0-.221.133L8.09,37.414A1.877,1.877,0,0,0,8.115,39.3a1.9,1.9,0,0,0,1.643.938H33.35l-.005,0h1.209a1.9,1.9,0,0,0,1.667-2.825l-1.294-2.329a.249.249,0,0,0-.218-.127.256.256,0,0,0-.124.032.252.252,0,0,0-.093.338l1.294,2.329a1.4,1.4,0,0,1-1.227,2.087H9.758a1.406,1.406,0,0,1-1.227-2.092l12.492-22.87a.252.252,0,0,0-.1-.341A.246.246,0,0,0,20.8,14.4Z" transform="translate(-3.674 -6.956)" fill="#1c5c2e"/>
    </g>
  </g>
</svg>
