<svg xmlns="http://www.w3.org/2000/svg" width="37.73" height="32.755" viewBox="0 0 37.73 32.755">
  <g id="Layer_1-2" transform="translate(0.375 0.376)">
    <g id="Group_38596" data-name="Group 38596" transform="translate(0 -0.001)">
      <path id="Path_2716" data-name="Path 2716" d="M36.911,34.017l-.007.014-.7-2.02a1.006,1.006,0,0,0-1.918.04l-.584,1.965-1.679-6.878a1.008,1.008,0,0,0-1.951-.029l-1.806,6.545H23.978a1.008,1.008,0,0,0,0,2.016H29.04a1.01,1.01,0,0,0,.972-.74l.979-3.546,1.642,6.733a1.007,1.007,0,0,0,1.943.047l.751-2.527.392,1.135a1,1,0,0,0,.859.674,1.018,1.018,0,0,0,.968-.5l.823-1.429h3.945a1.008,1.008,0,1,0,0-2.016H37.785a1.012,1.012,0,0,0-.874.5Z" transform="translate(-14.641 -16.808)" fill="#1c5c2e"/>
      <path id="Path_2716_-_Outline" data-name="Path 2716 - Outline" d="M33.612,39.261H33.6a1.384,1.384,0,0,1-1.335-1.054l-1.3-5.332-.6,2.155a1.386,1.386,0,0,1-1.333,1.015H23.978a1.383,1.383,0,1,1,0-2.766h4.007l1.73-6.269a1.386,1.386,0,0,1,1.333-1.015h.006a1.393,1.393,0,0,1,1.338,1.055l1.35,5.531.189-.636a1.381,1.381,0,0,1,2.632-.054l.5,1.443a1.384,1.384,0,0,1,.725-.206h4.529a1.383,1.383,0,1,1,0,2.766H38.586l-.715,1.241a1.392,1.392,0,0,1-1.207.692c-.039,0-.078,0-.117,0a1.38,1.38,0,0,1-1.183-.927l-.01-.028-.418,1.407A1.384,1.384,0,0,1,33.612,39.261Zm-2.6-9.367L33,38.029a.632.632,0,0,0,1.219.031L35.3,34.41l.773,2.24a.629.629,0,0,0,.539.423l.052,0a.641.641,0,0,0,.557-.316l.931-1.617h4.162a.633.633,0,1,0,0-1.266H37.785a.638.638,0,0,0-.521.272L36.84,35l-.987-2.863a.627.627,0,0,0-.595-.43h-.017a.63.63,0,0,0-.592.452l-.979,3.3-2.008-8.226a.633.633,0,0,0-1.225-.018l-1.882,6.82H23.978a.633.633,0,1,0,0,1.266H29.04a.634.634,0,0,0,.61-.464Z" transform="translate(-14.641 -16.808)" fill="#1c5c2e"/>
      <path id="Path_2717" data-name="Path 2717" d="M34.108,3.048A10.416,10.416,0,0,0,25.294.1a10.774,10.774,0,0,0-6.762,3.978A10.855,10.855,0,0,0,11.407.075,10.437,10.437,0,0,0,2.44,3.542a10.222,10.222,0,0,0-2.049,9.4,14.125,14.125,0,0,0,2.883,4.989c.526.638,1.066,1.24,1.668,1.9,2.252,2.487,8.173,8.154,11.5,11.313a3.137,3.137,0,0,0,4.326-.011C23.811,28.219,29.242,22.99,31.36,20.7s4.753-5.134,5.45-8.756a10.148,10.148,0,0,0-2.7-8.9Zm-1.439,1.41a8.1,8.1,0,0,1,2.165,7.1c-.587,3.057-3.006,5.671-4.953,7.77-2.157,2.331-8.067,8.009-10.508,10.344a1.117,1.117,0,0,1-1.545,0c-2.661-2.524-9.1-8.673-11.392-11.2-.584-.645-1.11-1.229-1.606-1.835a12.277,12.277,0,0,1-2.505-4.282,8.156,8.156,0,0,1,1.639-7.5,8.409,8.409,0,0,1,6.291-2.835,8.6,8.6,0,0,1,.921.051,8.764,8.764,0,0,1,6.487,4.307,1.009,1.009,0,0,0,1.755-.007A8.649,8.649,0,0,1,25.584,2.1a8.371,8.371,0,0,1,7.081,2.36Z" transform="translate(0 0.001)" fill="#1c5c2e"/>
      <path id="Path_2717_-_Outline" data-name="Path 2717 - Outline" d="M26.743-.376a10.962,10.962,0,0,1,4.136.824,10.567,10.567,0,0,1,3.5,2.338L35,3.423h-.055a10.537,10.537,0,0,1,2.231,8.594c-.716,3.725-3.39,6.614-5.539,8.936l0,0c-1.57,1.7-5.14,5.212-10.611,10.448a3.512,3.512,0,0,1-4.842.013c-4.1-3.891-9.419-9.014-11.518-11.334-.575-.634-1.136-1.258-1.679-1.917a14.466,14.466,0,0,1-2.952-5.12A10.6,10.6,0,0,1,2.157,3.3a10.851,10.851,0,0,1,8.1-3.661A10.464,10.464,0,0,1,11.449-.3a10.935,10.935,0,0,1,4.073,1.341,11.456,11.456,0,0,1,3.006,2.45,11.062,11.062,0,0,1,6.71-3.76A10.323,10.323,0,0,1,26.743-.376Zm6.945,3.536A10.141,10.141,0,0,0,26.743.374a9.573,9.573,0,0,0-1.394.1,10.467,10.467,0,0,0-6.522,3.838l-.293.373-.3-.371A10.543,10.543,0,0,0,11.364.448a9.711,9.711,0,0,0-1.1-.063,10.091,10.091,0,0,0-7.537,3.4A9.837,9.837,0,0,0,.751,12.833,13.767,13.767,0,0,0,3.563,17.69c.533.647,1.088,1.263,1.657,1.891,2.084,2.3,7.392,7.412,11.478,11.293a2.762,2.762,0,0,0,3.808-.01c5.383-5.152,9.041-8.754,10.579-10.415l0,0c2.084-2.251,4.677-5.053,5.353-8.568a9.769,9.769,0,0,0-2.6-8.564Zm-6.939-1.52a8.7,8.7,0,0,1,6.072,2.445h0l.113.112A8.478,8.478,0,0,1,35.2,11.633c-.609,3.17-3.069,5.823-5.046,7.954-2.043,2.208-7.47,7.439-10.523,10.36a1.492,1.492,0,0,1-2.062,0C15.5,27.988,8.553,21.373,6.158,18.732c-.62-.685-1.133-1.256-1.618-1.849A12.624,12.624,0,0,1,1.965,12.47,8.54,8.54,0,0,1,3.679,4.616a8.787,8.787,0,0,1,6.574-2.965,8.958,8.958,0,0,1,.961.053A9.149,9.149,0,0,1,17.987,6.2a.638.638,0,0,0,.556.319.631.631,0,0,0,.547-.324,9.03,9.03,0,0,1,6.44-4.465A8.417,8.417,0,0,1,26.748,1.639ZM32.479,4.8,32.4,4.721a8.048,8.048,0,0,0-5.649-2.332,7.664,7.664,0,0,0-1.11.08,8.266,8.266,0,0,0-5.894,4.09,1.384,1.384,0,0,1-2.408.01,8.385,8.385,0,0,0-6.2-4.121,8.194,8.194,0,0,0-.878-.048A8.028,8.028,0,0,0,4.246,5.107a7.773,7.773,0,0,0-1.563,7.149,11.933,11.933,0,0,0,2.436,4.151c.477.581.962,1.122,1.595,1.822,2.377,2.621,9.305,9.22,11.372,11.18a.742.742,0,0,0,1.027,0c3.047-2.916,8.462-8.135,10.492-10.328,1.912-2.062,4.291-4.627,4.86-7.586A7.719,7.719,0,0,0,32.479,4.8Z" transform="translate(0 0.001)" fill="#1c5c2e"/>
    </g>
  </g>
</svg>
