<svg xmlns="http://www.w3.org/2000/svg" width="34.627" height="33.242" viewBox="0 0 34.627 33.242">
  <g id="Layer_1-2" transform="translate(1 1)">
    <g id="Group_38577" data-name="Group 38577" transform="translate(0 0)">
      <path id="Path_2678" data-name="Path 2678" d="M31.2,60.3l1.8,2.442a3.27,3.27,0,0,1,.185,3.586v.044l-.014-.02a3.244,3.244,0,0,1-.867.953l-7.171,5.285a8.65,8.65,0,0,1-5.165,1.7H1.814A2.817,2.817,0,0,1-1,71.474V67.849a2.817,2.817,0,0,1,2.814-2.814H3.548l2.271-1.82a8.269,8.269,0,0,1,5.157-1.805h8.966a2.814,2.814,0,0,1,1.006,5.442h.966l6.516-4.8a3.254,3.254,0,0,1,2.764-.527ZM19.943,65.038a.814.814,0,1,0,0-1.628H10.976A6.262,6.262,0,0,0,7.07,64.776L4.25,67.035H1.814A.815.815,0,0,0,1,67.849v3.625a.815.815,0,0,0,.814.814H19.962a6.664,6.664,0,0,0,3.978-1.306L31.112,65.7a1.263,1.263,0,0,0,.31-1.71l-.04-.055a1.263,1.263,0,0,0-1.767-.269l-7.044,5.19H15.411a1.907,1.907,0,0,1,0-3.814Z" transform="translate(0 -42.046)" fill="#1c5c2e"/>
      <path id="Path_2679" data-name="Path 2679" d="M48.327-1A1.462,1.462,0,0,1,49.7-.048l.685,1.833,1.832.685a1.459,1.459,0,0,1,0,2.736L50.38,5.89,49.7,7.722a1.459,1.459,0,0,1-2.737,0L46.274,5.89l-1.832-.685a1.459,1.459,0,0,1,0-2.736l1.832-.685.685-1.832A1.462,1.462,0,0,1,48.327-1ZM50.16,3.837l-1.334-.5L48.327,2l-.5,1.334-1.334.5,1.334.5.5,1.334.5-1.334Z" transform="translate(-29.973 0)" fill="#1c5c2e"/>
      <path id="Path_2680" data-name="Path 2680" d="M14.962,4.87a1.7,1.7,0,0,1,1.586,1.1l1.112,2.963,2.973,1.116a1.693,1.693,0,0,1-.01,3.168l-2.963,1.112L16.545,17.3a1.693,1.693,0,0,1-3.168-.01l-1.112-2.963L9.291,13.215a1.693,1.693,0,0,1,.01-3.168l2.963-1.112L13.38,5.961A1.687,1.687,0,0,1,14.962,4.87Zm4.2,6.762-3.051-1.145L14.962,7.436l-1.145,3.051-3.051,1.145,3.051,1.145,1.145,3.051,1.145-3.051Z" transform="translate(-6.198 -3.955)" fill="#1c5c2e"/>
      <path id="Path_2681" data-name="Path 2681" d="M62.012,23.26a1.7,1.7,0,0,1,1.586,1.1l1.112,2.963,2.973,1.116a1.693,1.693,0,0,1-.01,3.168l-2.963,1.112-1.116,2.973a1.693,1.693,0,0,1-3.168-.01l-1.112-2.963L56.341,31.6a1.693,1.693,0,0,1,.01-3.168l2.963-1.112,1.116-2.973A1.687,1.687,0,0,1,62.012,23.26Zm4.2,6.762-3.051-1.145-1.145-3.051-1.145,3.051-3.051,1.145,3.051,1.145,1.145,3.051,1.145-3.051Z" transform="translate(-37.896 -16.344)" fill="#1c5c2e"/>
    </g>
  </g>
</svg>
