<svg xmlns="http://www.w3.org/2000/svg" width="25.172" height="40.855" viewBox="0 0 25.172 40.855">
  <g id="Group_38610" data-name="Group 38610" transform="translate(-53.599 -1095.278)">
    <path id="Icon_awesome-star" data-name="Icon awesome-star" d="M9.064,5.9h8.427l6.518.95a2.167,2.167,0,0,1,1.2,3.7l-4.394,4.282,1.039,6.049a2.15,2.15,0,0,1-.472,1.754,2.177,2.177,0,0,1-1.665.779,2.138,2.138,0,0,1-1-.25L13.277,20.3,7.843,23.154a2.129,2.129,0,0,1-1.006.252A2.168,2.168,0,0,1,4.7,20.872l1.039-6.049L1.347,10.541a2.167,2.167,0,0,1,1.2-3.7Zm8.318,1.5H9.172l-6.41.935a.667.667,0,0,0-.368,1.136L7.353,14.3,6.18,21.126a.637.637,0,0,0,.141.535.686.686,0,0,0,.516.245.648.648,0,0,0,.306-.079L13.277,18.6l6.132,3.223a.653.653,0,0,0,.306.078.689.689,0,0,0,.519-.246.635.635,0,0,0,.14-.533L19.2,14.3,24.16,9.467a.667.667,0,0,0-.367-1.136Z" transform="translate(52.907 1112.728)" fill="#1c5c2e"/>
    <g id="Layer_1-2" transform="translate(56.267 1095.285)">
      <path id="Path_2677" data-name="Path 2677" d="M19.825,12.092a.931.931,0,0,0-.29-.647.9.9,0,0,0-.664-.246c-.223.01-5.513.26-7.476,3.389a5.511,5.511,0,0,0-.189,5.092c-.209.428-.4.873-.577,1.332a44.98,44.98,0,0,0-1.13-5.3c2.04-2.458,2.772-4.916,2.175-7.307C10.333,3.058,2.793.175,2.473.054A.915.915,0,0,0,1.762.08.925.925,0,0,0,1.283.61C-.481,5.621-.423,9.6,1.458,12.436A9.389,9.389,0,0,0,7.727,16.28,40.555,40.555,0,0,1,9.21,28.271c-2.468.489-4.1,3.089-4.171,3.2a.922.922,0,0,0,.219,1.211,7.609,7.609,0,0,0,4.714,1.7A8.158,8.158,0,0,0,14.7,32.809a.917.917,0,0,0,.2-1.214,7.112,7.112,0,0,0-3.733-3.237,18.821,18.821,0,0,1,1.6-7.614,7.4,7.4,0,0,0,.772.04,5.986,5.986,0,0,0,3.743-1.227c1.794-1.423,2.65-3.935,2.553-7.469Zm-7.01,19.747a5.662,5.662,0,0,1-5.685-.1,4.31,4.31,0,0,1,2.859-1.713H10A3.807,3.807,0,0,1,12.815,31.838ZM4.142,5.385a.894.894,0,0,0-.435.553.915.915,0,0,0,.081.7A42.905,42.905,0,0,1,7.12,14.256a7.263,7.263,0,0,1-4.131-2.836C1.556,9.256,1.461,6.14,2.706,2.151c1.831.843,6.316,3.237,7.179,6.693a5.813,5.813,0,0,1-1.055,4.684A45.011,45.011,0,0,0,5.39,5.735a.923.923,0,0,0-1.251-.354ZM16.582,15.9a.92.92,0,0,0-1.1-1.474,13.861,13.861,0,0,0-2.947,3.008,3.01,3.01,0,0,1,.411-1.871c1.028-1.639,3.632-2.229,5.038-2.428-.074,2.384-.7,4.057-1.851,4.977a4.037,4.037,0,0,1-2.384.826A11.905,11.905,0,0,1,16.578,15.9Z" transform="translate(0 0)" fill="#1c5c2e"/>
    </g>
  </g>
</svg>
