<svg xmlns="http://www.w3.org/2000/svg" width="37.217" height="30.174" viewBox="0 0 37.217 30.174">
  <path id="Icon_awesome-chalkboard-teacher" data-name="Icon awesome-chalkboard-teacher" d="M14.967,29.173H2.641A3.639,3.639,0,0,1-1,25.572a7.163,7.163,0,0,1,7.163-7.2,2.253,2.253,0,0,1,.7.109,6.241,6.241,0,0,0,1.945.331,6.234,6.234,0,0,0,1.944-.331,2.255,2.255,0,0,1,.7-.109,7.182,7.182,0,0,1,6.524,4.2,6.023,6.023,0,0,0-1.693-2.444l-2.006-1.753H20.13V14.848h9.043v3.522h1.522V4.522H13.326V7.968A6.28,6.28,0,1,1,7.8,6.123V2.729A3.69,3.69,0,0,1,11.445-1h21.13a3.69,3.69,0,0,1,3.641,3.729V20.162a3.69,3.69,0,0,1-3.641,3.729H18.421a7.222,7.222,0,0,1,.188,1.681A3.639,3.639,0,0,1,14.967,29.173Zm-8.8-8.8A5.163,5.163,0,0,0,1,25.561a1.635,1.635,0,0,0,1.641,1.612H14.967a1.635,1.635,0,0,0,1.641-1.612,5.163,5.163,0,0,0-5.163-5.192.263.263,0,0,0-.08.011,8.2,8.2,0,0,1-2.561.429,8.2,8.2,0,0,1-2.562-.429A.258.258,0,0,0,6.163,20.369Zm13.69,1.522H32.575a1.689,1.689,0,0,0,1.641-1.729V2.729A1.689,1.689,0,0,0,32.575,1H11.445A1.689,1.689,0,0,0,9.8,2.729V4.347a7.748,7.748,0,0,1,1.522.358V2.522H32.695V20.369H27.173V16.848H22.13v3.522H19.1A7.953,7.953,0,0,1,19.852,21.891ZM8.8,8.043a4.283,4.283,0,1,0,4.282,4.283A4.287,4.287,0,0,0,8.8,8.043Z" transform="translate(1 1)" fill="#1c5c2e"/>
</svg>
