<svg xmlns="http://www.w3.org/2000/svg" width="33" height="33" viewBox="0 0 33 33">
  <g id="Icon_feather-tv" data-name="Icon feather-tv" transform="translate(-1.5 -1.5)">
    <path id="Path_2775" data-name="Path 2775" d="M6,9H30a4.505,4.505,0,0,1,4.5,4.5V30A4.505,4.505,0,0,1,30,34.5H6A4.505,4.505,0,0,1,1.5,30V13.5A4.505,4.505,0,0,1,6,9ZM30,31.5A1.5,1.5,0,0,0,31.5,30V13.5A1.5,1.5,0,0,0,30,12H6a1.5,1.5,0,0,0-1.5,1.5V30A1.5,1.5,0,0,0,6,31.5Z" fill="#1c5c2e"/>
    <path id="Path_2776" data-name="Path 2776" d="M18,12a1.5,1.5,0,0,1-1.061-.439l-7.5-7.5a1.5,1.5,0,0,1,2.121-2.121L18,8.379l6.439-6.439a1.5,1.5,0,0,1,2.121,2.121l-7.5,7.5A1.5,1.5,0,0,1,18,12Z" fill="#1c5c2e"/>
  </g>
</svg>
