<svg xmlns="http://www.w3.org/2000/svg" width="26" height="29" viewBox="0 0 26 29">
  <g id="Icon_feather-user" data-name="Icon feather-user" transform="translate(-5 -3.5)">
    <path id="Path_2741" data-name="Path 2741" d="M30,32.5a1,1,0,0,1-1-1v-3a5.006,5.006,0,0,0-5-5H12a5,5,0,0,0-5,5v3a1,1,0,0,1-2,0v-3a7,7,0,0,1,7-7H24a7.008,7.008,0,0,1,7,7v3A1,1,0,0,1,30,32.5Z" fill="#1c5c2e"/>
    <path id="Path_2742" data-name="Path 2742" d="M18,3.5a7,7,0,1,1-7,7A7.008,7.008,0,0,1,18,3.5Zm0,12a5,5,0,1,0-5-5A5.006,5.006,0,0,0,18,15.5Z" fill="#1c5c2e"/>
  </g>
</svg>
