<svg xmlns="http://www.w3.org/2000/svg" width="25.333" height="32" viewBox="0 0 25.333 32">
  <g id="Group_39512" data-name="Group 39512" transform="translate(11326 -5131)">
    <path id="Path_2815" data-name="Path 2815" d="M11.667,35a1,1,0,0,1-1-1V31.667h-4A2.67,2.67,0,0,1,4,29V5.667A2.67,2.67,0,0,1,6.667,3H25a4.338,4.338,0,0,1,4.333,4.333v20A4.338,4.338,0,0,1,25,31.667H12.667V34A1,1,0,0,1,11.667,35Zm1-5.333H25a2.336,2.336,0,0,0,2.333-2.333v-20A2.336,2.336,0,0,0,25,5H12.667ZM6.667,5A.667.667,0,0,0,6,5.667V29a.667.667,0,0,0,.667.667h4V5Z" transform="translate(-11330 5128)" fill="#1c5c2e"/>
    <path id="Path_2816" data-name="Path 2816" d="M16.333,9H13a1,1,0,0,1,0-2h3.333a1,1,0,0,1,0,2Z" transform="translate(-11324.667 5130.667)" fill="#1c5c2e"/>
    <path id="Path_2817" data-name="Path 2817" d="M16.333,13H13a1,1,0,0,1,0-2h3.333a1,1,0,0,1,0,2Z" transform="translate(-11324.667 5133.333)" fill="#1c5c2e"/>
  </g>
</svg>
